<svg xmlns="http://www.w3.org/2000/svg" viewBox="0 0 24 24"><path d="M22.286 9.884a10.516 10.516 0 0 1-4.417 10.823 10.502 10.502 0 0 1-11.386.228 10.494 10.494 0 0 1-4.896-10.279 9.44 9.44 0 0 1 .052-.337l.003-.018c.057-.357.134-.71.228-1.059.01-.034.018-.068.026-.102.011-.045.022-.091.036-.136.125-.42.276-.83.452-1.23.016-.036.034-.071.051-.106l.039-.08c.16-.346.34-.683.539-1.01l.038-.063.082-.134a10.531 10.531 0 0 1 1.774-2.113l.03-.027a10.513 10.513 0 0 1 2.268-1.577l.003-.003a.638.638 0 0 1 .175-.083 10.42 10.42 0 0 1 1.054-.446l.068-.025c.32-.114.649-.211.983-.293l.07-.018a10.458 10.458 0 0 1 1.033-.19 3.51 3.51 0 0 0 .1-.017c.045-.007.09-.015.135-.02a10.44 10.44 0 0 1 8.597 3.006 10.565 10.565 0 0 1 2.251 3.338c.269.635.474 1.295.612 1.97zM12.212 20.309c.01-.038.018-.076.03-.112l.04-.12c.178-.538.376-1.132.089-1.608-.138-.23-.362-.38-.587-.532-.199-.134-.398-.268-.54-.456a1.873 1.873 0 0 1-.059-1.704 3.56 3.56 0 0 0 .343-1.72 5.362 5.362 0 0 1-1.85-.497c-.366-.201-.682-.487-.996-.77-.4-.362-.798-.722-1.298-.906a2.206 2.206 0 0 1-.793-.35 1.439 1.439 0 0 1-.293-.467l-.963-2.093A2.778 2.778 0 0 1 5.008 7.9c.002-.274.061-.544.173-.794a8.383 8.383 0 0 0-.665 8.733 8.39 8.39 0 0 0 7.48 4.562c.036 0 .072-.003.108-.005l.088-.005a1.94 1.94 0 0 0 .02-.081zm6.729-4.815l.615.11A8.264 8.264 0 0 0 20.399 12a8.405 8.405 0 0 0-8.119-8.386A6.609 6.609 0 0 1 14.64 6.1a5.28 5.28 0 0 0-2.953 2.472 1.21 1.21 0 0 1-.208.417c-.021.022-.045.043-.068.064a.448.448 0 0 0-.13.155.446.446 0 0 0 .015.286c.099.353.208.704.328 1.05-.425.249-1.051.46-1.334.058-.087-.125-.122-.29-.157-.452-.052-.243-.102-.475-.325-.532a.621.621 0 0 0-.3.023l-1.15.284a4.169 4.169 0 0 0-.072 1.943c.765-.114 1.698-.163 2.15.464.095.133.17.295.245.455.159.344.314.68.665.708.19-.006.375-.06.538-.156a3.459 3.459 0 0 1 3.286.284c.277.257.627.424 1.002.477l.077-.003c.113-.008.23-.015.308.062a.5.5 0 0 1 .086.3c.07.521.645.815 1.165.894.15.023.305.036.459.049l.204.018c.025.002.05.006.074.01.02.004.04.008.061.01l.002-.005.202.036.047.008.084.015z"/><path d="M12 19.5a7.5 7.5 0 1 1 0-15 7.5 7.5 0 0 1 0 15zm0 3c5.799 0 10.5-4.701 10.5-10.5S17.799 1.5 12 1.5 1.5 6.201 1.5 12 6.201 22.5 12 22.5z"/></svg>