<svg viewBox="0 0 24 24" fill="none" xmlns="http://www.w3.org/2000/svg">
<path d="M10.5 4.5C7.18629 4.5 4.5 7.18629 4.5 10.5C4.5 13.8137 7.18629 16.5 10.5 16.5C12.1573 16.5 13.6552 15.8301 14.7426 14.7426C15.8301 13.6552 16.5 12.1573 16.5 10.5C16.5 7.18629 13.8137 4.5 10.5 4.5ZM1.5 10.5C1.5 5.52944 5.52944 1.5 10.5 1.5C15.4706 1.5 19.5 5.52944 19.5 10.5C19.5 12.4431 18.883 14.2438 17.836 15.7147L22.0607 19.9393C22.6464 20.5251 22.6464 21.4749 22.0607 22.0607C21.4749 22.6464 20.5251 22.6464 19.9393 22.0607L15.7147 17.836C14.2438 18.883 12.4431 19.5 10.5 19.5C5.52944 19.5 1.5 15.4706 1.5 10.5Z" fill="#111236"/>
</svg>
