<svg xmlns="http://www.w3.org/2000/svg" viewBox="0 0 24 24"><path d="M3 3.75A2.75 2.75 0 0 1 8.396 3H13.632a.94.94 0 0 1 .842.52 2.75 2.75 0 0 1 0 2.46l-.053.105a.75.75 0 1 1-1.342-.67l.053-.106a1.25 1.25 0 0 0 .107-.809h-1.486a2.75 2.75 0 0 1-.28 1.48l-.052.105a.75.75 0 1 1-1.342-.67l.053-.106a1.25 1.25 0 0 0 .107-.809H8.396A2.751 2.751 0 0 1 3 3.75zM5.75 2.5a1.25 1.25 0 1 0 0 2.5 1.25 1.25 0 0 0 0-2.5zM2.3 15H.7a.7.7 0 0 1-.7-.7V9.7A.7.7 0 0 1 .7 9h1.6a.7.7 0 0 1 .7.7v4.6a.7.7 0 0 1-.7.7zM4 10a1 1 0 0 1 1-1h4.764a1 1 0 0 1 .447.106l1.447.723A.618.618 0 0 1 11.382 11H9.25a.25.25 0 1 0 0 .5h1.588a1 1 0 0 0 .316-.051l3.797-1.266a.667.667 0 0 1 .628 1.154l-4.305 3.444a1 1 0 0 1-.625.219H5a1 1 0 0 1-1-1v-4z"/></svg>