<svg xmlns="http://www.w3.org/2000/svg" viewBox="0 0 24 24"><path d="M12 1.5a10.5 10.5 0 0 1 4.258 20.098 10.493 10.493 0 0 1-13.305-4.281c-.024-.042-.05-.084-.077-.125a3.18 3.18 0 0 1-.109-.182 10.438 10.438 0 0 1-1.218-5.967 6.78 6.78 0 0 1 .035-.293l.013-.101a10.45 10.45 0 0 1 .181-1.014c.027-.115.058-.23.088-.343.051-.192.103-.384.164-.571.156-.47.346-.928.567-1.37l.034-.072.048-.1c.094-.18.195-.354.298-.528l.004-.006A10.483 10.483 0 0 1 12 1.5zM4.906 13.239c-.168-.242-.337-.484-.552-.579a3.468 3.468 0 0 0-.708-1.54 8.385 8.385 0 0 0 3.603 7.823 8.378 8.378 0 0 0 7.79.886l-.244-.482a.859.859 0 0 0-.251-.341.871.871 0 0 0-.714-.017l-2.822.756a5.28 5.28 0 0 0-.035-1.349c-.067-.452.05-.912.326-1.276.35-.28.757-.478 1.194-.578a3.245 3.245 0 0 0 1.645-1.425l.889.049c.798-.05 1.6-.058 2.399-.024.08-.005.16.015.229.055a.44.44 0 0 1 .133.279 4.653 4.653 0 0 0 .745 1.685l.04.058a8.386 8.386 0 0 0-4.247-13.283c-.107.328-.118.68-.03 1.014.032.086.08.166.127.246.044.073.088.146.12.225a.925.925 0 0 1-.41 1.135l-1.15-1.343a1.57 1.57 0 0 0-.429.878c.005.167.037.333.094.49l.548 1.794c-.904.388-1.757.888-2.537 1.488a.151.151 0 0 0-.044.25l.66 1.023c.062.078.1.171.11.27a.414.414 0 0 1-.099.25c-.349.381-.9.503-1.376.303a3.166 3.166 0 0 1-1.185-.91 17.681 17.681 0 0 1-1.39-1.72 1.06 1.06 0 0 0-.86.535c-.17.309-.287.645-.345.993l-.49 2.168-.182.792c-.215-.095-.384-.337-.552-.579z"/><path d="M12 19.5a7.5 7.5 0 1 1 0-15 7.5 7.5 0 0 1 0 15zm0 3c5.799 0 10.5-4.701 10.5-10.5S17.799 1.5 12 1.5C6.2 1.5 1.5 6.201 1.5 12S6.201 22.5 12 22.5z"/></svg>