<svg viewBox="0 0 24 24" fill="none" xmlns="http://www.w3.org/2000/svg">
<path d="M10.5 4C6.91015 4 4 6.91015 4 10.5C4 14.0899 6.91015 17 10.5 17C12.2952 17 13.9188 16.2736 15.0962 15.0962C16.2736 13.9188 17 12.2952 17 10.5C17 6.91015 14.0899 4 10.5 4ZM2 10.5C2 5.80558 5.80558 2 10.5 2C15.1944 2 19 5.80558 19 10.5C19 12.4865 18.3176 14.3149 17.176 15.7618L21.7071 20.2929C22.0976 20.6834 22.0976 21.3166 21.7071 21.7071C21.3166 22.0976 20.6834 22.0976 20.2929 21.7071L15.7618 17.176C14.3149 18.3176 12.4865 19 10.5 19C5.80558 19 2 15.1944 2 10.5Z" fill="#111236"/>
</svg>
