<svg xmlns="http://www.w3.org/2000/svg" width="16" height="16"><rect width="4" height="2" y="7" opacity=".45" rx="1"/><rect width="4" height="2" x="12" y="7" rx="1"/><rect width="4" height="2" x="7" y="16" opacity=".3" rx="1" transform="rotate(-90 7 16)"/><rect width="4" height="2" x="7" y="4" opacity=".65" rx="1" transform="rotate(-90 7 4)"/><rect width="4" height="2" x="11.134" y="15.428" opacity=".25" rx="1" transform="rotate(-120 11.134 15.428)"/><rect width="4" height="2" x="5.134" y="5.036" opacity=".55" rx="1" transform="rotate(-120 5.134 5.036)"/><rect width="4" height="2" x="14.428" y="12.866" opacity=".2" rx="1" transform="rotate(-150 14.428 12.866)"/><rect width="4" height="2" x="4.036" y="6.866" opacity=".5" rx="1" transform="rotate(-150 4.036 6.866)"/><rect width="4" height="2" x="15.428" y="4.866" opacity=".85" rx="1" transform="rotate(150 15.428 4.866)"/><rect width="4" height="2" x="5.036" y="10.866" opacity=".4" rx="1" transform="rotate(150 5.036 10.866)"/><rect width="4" height="2" x="12.866" y="1.572" opacity=".75" rx="1" transform="rotate(120 12.866 1.572)"/><rect width="4" height="2" x="6.866" y="11.964" opacity=".35" rx="1" transform="rotate(120 6.866 11.964)"/></svg>